<svg width="35" height="34" version="1.1" xmlns="http://www.w3.org/2000/svg" desc="Created with imagetracer.js version 1.2.6" ><path fill="rgb(0,0,0)" stroke="rgb(0,0,0)" stroke-width="1" opacity="0.1411764705882353" d="M 21.5 0 L 18.5 4 L 17.5 2 L 18.5 3 L 21.5 0 Z " /><path fill="rgb(0,0,0)" stroke="rgb(0,0,0)" stroke-width="1" opacity="0.1411764705882353" d="M 9.5 4 L 12 4.5 L 9.5 5 L 9.5 4 Z " /><path fill="rgb(0,0,0)" stroke="rgb(0,0,0)" stroke-width="1" opacity="0.1411764705882353" d="M 14.5 5 L 13.5 7 L 14.5 5 Z " /><path fill="rgb(0,0,0)" stroke="rgb(0,0,0)" stroke-width="1" opacity="0.1411764705882353" d="M 29.5 6 L 31.5 9 L 29.5 6 Z " /><path fill="rgb(0,0,0)" stroke="rgb(0,0,0)" stroke-width="1" opacity="0.1411764705882353" d="M 11.5 12 L 12 14 L 10 13.5 L 11.5 12 Z " /><path fill="rgb(0,0,0)" stroke="rgb(0,0,0)" stroke-width="1" opacity="0.1411764705882353" d="M 24.5 13 L 25.5 15 L 24.5 13 Z " /><path fill="rgb(0,0,0)" stroke="rgb(0,0,0)" stroke-width="1" opacity="0.1411764705882353" d="M 4.5 15 L 5.5 17 L 4.5 15 Z " /><path fill="rgb(0,0,0)" stroke="rgb(0,0,0)" stroke-width="1" opacity="0.1411764705882353" d="M 12.5 15 L 13 17 L 11 16.5 L 12.5 15 Z " /><path fill="rgb(0,0,0)" stroke="rgb(0,0,0)" stroke-width="1" opacity="0.1411764705882353" d="M 14.5 17 L 15.5 19 L 14.5 17 Z " /><path fill="rgb(0,0,0)" stroke="rgb(0,0,0)" stroke-width="1" opacity="0.1411764705882353" d="M 10.5 21 L 9.5 23 L 10.5 21 Z " /><path fill="rgb(0,0,0)" stroke="rgb(0,0,0)" stroke-width="1" opacity="0" d="M 0 0 L 21 0.5 Q 19.3 4.8 17.5 2 Q 10 0.5 7 3.5 L 14 5.5 Q 9.3 8.8 7.5 15 L 2.5 14 L 2.5 15 L 5 16.5 L 0.5 20 L 0 0 Z " /><path fill="rgb(0,0,0)" stroke="rgb(0,0,0)" stroke-width="1" opacity="0" d="M 27.5 0 L 34.5 0 L 35 0.5 L 35 33 L 20 27 L 19 13.5 L 20 10 L 24 12.5 L 25.5 15 L 26 12.5 L 24 8.5 L 26.5 8 L 32 10 L 29.5 6 L 23 3.5 L 27.5 0 Z " /><path fill="rgb(0,0,0)" stroke="rgb(0,0,0)" stroke-width="1" opacity="0" d="M 16.5 9 Q 19.9 8.1 18 13.5 L 16.5 20 L 14.5 17 Q 11.9 17.7 13 15 L 16 13.5 L 12 12.5 L 16.5 9 Z " /><path fill="rgb(0,0,0)" stroke="rgb(0,0,0)" stroke-width="1" opacity="0" d="M 10 19 L 17 22.5 L 16.5 27 L 14.5 27 Q 10.8 28.3 12 24.5 L 10 19 Z " /><path fill="rgb(0,0,0)" stroke="rgb(0,0,0)" stroke-width="1" opacity="0" d="M 4.5 20 L 5.5 24 L 8.5 20 L 10 28 L 0 33 L 0 22.5 L 1.5 22 L 4.5 20 Z " /><path fill="rgb(0,0,0)" stroke="rgb(0,0,0)" stroke-width="1" opacity="0.9725490196078431" d="M 23.5 0 L 26 0.5 L 21 4.5 Q 28.5 4 31 8.5 L 29.5 8 Q 25.1 9.5 26 6.5 L 24.5 7 Q 22.3 6.3 23 8.5 L 25 11.5 L 22.5 10 L 18.5 8 L 14.5 10 L 13 9.5 L 11.5 12 Q 9.3 12.8 10 10.5 Q 11.4 6 17 7 Q 18.1 4.3 15.5 5 L 9 3.5 L 14.5 2 L 20 4 L 21.5 1 L 23.5 0 Z " /><path fill="rgb(0,0,0)" stroke="rgb(0,0,0)" stroke-width="1" opacity="0.9725490196078431" d="M 18.5 12 L 19 25.5 L 20 28 L 32 32.5 L 3.5 33 L 4.5 31 L 11 27.5 L 11.5 26 L 12.5 28 L 18 27 L 18.5 12 Z " /><path fill="rgb(0,0,0)" stroke="rgb(0,0,0)" stroke-width="1" opacity="0.9725490196078431" d="M 9.5 13 L 13 14.5 L 10 16.5 L 16 19.5 L 14.5 20 Q 13.2 17.8 8.5 19 L 6 20.5 Q 6.8 18.3 4.5 19 L 1.5 21 L 4.5 17 L 7 16.5 L 4 14.5 L 5.5 14 L 8.5 16 L 9.5 13 Z " /><path fill="rgb(0,0,0)" stroke="rgb(0,0,0)" stroke-width="1" opacity="0.5882352941176471" d="M 24.5 1 L 23.5 4 L 25 4.5 L 21.5 5 L 24.5 1 Z " /><path fill="rgb(0,0,0)" stroke="rgb(0,0,0)" stroke-width="1" opacity="0.5882352941176471" d="M 12.5 4 L 17 5 Q 18.3 8 14.5 7 L 14.5 5 Q 11.5 5.5 12.5 4 Z " /><path fill="rgb(0,0,0)" stroke="rgb(0,0,0)" stroke-width="1" opacity="0.5882352941176471" d="M 25.5 6 L 26 8 L 23.5 9 L 23 7 L 25.5 6 Z " /><path fill="rgb(0,0,0)" stroke="rgb(0,0,0)" stroke-width="1" opacity="0.5882352941176471" d="M 12.5 7 L 11.5 9 L 12.5 7 Z " /><path fill="rgb(0,0,0)" stroke="rgb(0,0,0)" stroke-width="1" opacity="0.5882352941176471" d="M 18.5 8 L 20 10.5 L 18 11.5 L 19 9.5 L 18.5 8 Z " /><path fill="rgb(0,0,0)" stroke="rgb(0,0,0)" stroke-width="1" opacity="0.5882352941176471" d="M 28.5 8 L 32 9.5 L 30.5 10 L 28.5 8 Z " /><path fill="rgb(0,0,0)" stroke="rgb(0,0,0)" stroke-width="1" opacity="0.5882352941176471" d="M 13.5 9 L 14 10.5 L 12 11.5 L 13.5 9 Z " /><path fill="rgb(0,0,0)" stroke="rgb(0,0,0)" stroke-width="1" opacity="0.5882352941176471" d="M 22.5 10 L 25 10.5 L 24.5 12 Q 26.8 11.3 26 13.5 L 22.5 10 Z " /><path fill="rgb(0,0,0)" stroke="rgb(0,0,0)" stroke-width="1" opacity="0.5882352941176471" d="M 9.5 11 L 10.5 13 Q 7.7 13.7 9.5 11 Z " /><path fill="rgb(0,0,0)" stroke="rgb(0,0,0)" stroke-width="1" opacity="0.5882352941176471" d="M 12.5 13 L 16 13.5 L 13.5 15 L 12.5 13 Z " /><path fill="rgb(0,0,0)" stroke="rgb(0,0,0)" stroke-width="1" opacity="0.5882352941176471" d="M 6.5 14 L 8.5 15 L 10 14.5 L 6.5 17 L 6.5 14 Z " /><path fill="rgb(0,0,0)" stroke="rgb(0,0,0)" stroke-width="1" opacity="0.5882352941176471" d="M 11.5 15 L 10.5 17 L 11.5 15 Z " /><path fill="rgb(0,0,0)" stroke="rgb(0,0,0)" stroke-width="1" opacity="0.5882352941176471" d="M 17.5 16 L 18 24.5 L 17 24.5 Q 18.5 20.1 15.5 21 L 15.5 20 L 17 20 L 17.5 16 Z " /><path fill="rgb(0,0,0)" stroke="rgb(0,0,0)" stroke-width="1" opacity="0.5882352941176471" d="M 2.5 18 L 3 20.5 L 1.5 22 L 0 21.5 L 2 20.5 Q -0.3 19.2 2.5 18 Z " /><path fill="rgb(0,0,0)" stroke="rgb(0,0,0)" stroke-width="1" opacity="0.5882352941176471" d="M 8.5 19 L 11 22.5 L 9 21.5 L 8.5 20 L 5.5 24 L 5 21 L 8.5 19 Z " /><path fill="rgb(0,0,0)" stroke="rgb(0,0,0)" stroke-width="1" opacity="0.5882352941176471" d="M 19.5 23 L 20 25.5 L 19 25.5 L 19.5 23 Z " /><path fill="rgb(0,0,0)" stroke="rgb(0,0,0)" stroke-width="1" opacity="0.5882352941176471" d="M 10 24 Q 13 23 12 26 Q 9 27 10 24 Z " /><path fill="rgb(0,0,0)" stroke="rgb(0,0,0)" stroke-width="1" opacity="0.5882352941176471" d="M 2.5 32 L 3.5 33 L 31.5 33 Q 32.8 30.7 34 33.5 L 1.5 34 L 2.5 32 Z " /></svg>